<svg id="レイヤー_1" data-name="レイヤー 1" xmlns="http://www.w3.org/2000/svg" width="445" height="245" viewBox="0 0 445 245">
  <defs>
    <style>
      .cls-1 {
        fill: #fff;
      }
    </style>
  </defs>
  <title>kitasenju_logoA</title>
  <rect width="445" height="245"/>
  <g>
    <g>
      <path class="cls-1" d="M240.07,84.44q-2.62-6.94-4.88-11.81l-2.45,3.47a116.64,116.64,0,0,1,4.89,11.81Z"/>
      <path class="cls-1" d="M235.88,89.3A100.47,100.47,0,0,0,231,77.15l-2.44,3.12q2.44,5.57,4.88,12.51Z"/>
      <path class="cls-1" d="M211.13,148l3.48,5.21q5.91-10.71,7.36-25.76h-4.13C216.85,135.66,214.62,142.53,211.13,148Z"/>
      <path class="cls-1" d="M222.46,117.09v-4.52h14.29v-7.64h-.58v1.33H214.73v-1.33H201v7.64h17.44v4.52c0,.93,0,1.82-.07,2.72h4C222.42,118.9,222.46,118,222.46,117.09Z"/>
      <rect class="cls-1" x="207.29" y="83.75" width="21.44" height="7.64"/>
      <path class="cls-1" d="M254.88,116h2.69l-.07-7.24H261l-.08-7.64H257.5l-.17-14.93c1-2.09,1-3.24-.18-3.48h-3.66l.18,18.41h-7.42l-1.18,1.68c-.22-.59-.42-1.12-.64-1.68h-.53v7.64h9.77l0,4.89.07-.09C254.14,114.32,254.51,115.14,254.88,116Z"/>
      <path class="cls-1" d="M253.81,123.63l0,2.84h1.5c-.38-1-.75-1.94-1.1-2.84Z"/>
      <path class="cls-1" d="M269,108.75V116h4c0-.22,0-.42,0-.64v-6.6h3.25v-7.64h-3.43V83.4c1.05-2.09,1-3.24-.17-3.47h-3.84v21.18h-4.06l.09,7.64Z"/>
      <path class="cls-1" d="M267.66,142a47.57,47.57,0,0,0,4.47-14.43l0-4h-3.56a39,39,0,0,1-3.47,12.54l.06,5.17h-3.26a24.07,24.07,0,0,1-5.4,4.92l2.79,6.26a31.2,31.2,0,0,0,3.25-3.05V142Z"/>
      <path class="cls-1" d="M281.56,89.65A107.27,107.27,0,0,0,276,78.19l-1.92,4.17a85.65,85.65,0,0,1,5.24,11.11Z"/>
      <rect class="cls-1" x="280.28" y="101.11" width="2.85" height="7.64"/>
      <path class="cls-1" d="M284.87,83.75a76.32,76.32,0,0,0-5.57-11.47l-1.92,4.17a64.14,64.14,0,0,1,5.23,11.12Z"/>
      <path class="cls-1" d="M307.54,152.52h4V131.65c-1.27,1.71-2.62,3.35-4,5Z"/>
      <path class="cls-1" d="M307.54,111.88v15c1.39-1.67,2.72-3.42,4-5.23V105.28a122.46,122.46,0,0,0,8.54-17.71c1.75-.7,2.15-1.74,1.22-3.13L318,78.88q-7.2,21.25-19.62,35.17a67.58,67.58,0,0,1,3.12,6A92.06,92.06,0,0,0,307.54,111.88Z"/>
      <path class="cls-1" d="M291.44,124.31v.37l1.8,4.22c.54-.5,1-1,1.56-1.55-.73-1.51-1.45-2.9-2.14-4.08l1.92-4.17q1.46,2.55,2.91,5.56c.5-.53,1-1.09,1.45-1.63a47.91,47.91,0,0,0-3-5.66l.69-1.49c-1.68,1.77-3.42,3.46-5.24,5C292.39,121.24,292.43,122.35,291.44,124.31Z"/>
      <path class="cls-1" d="M349,100.36c.34.42.72,1,1.09,1.47l.71-1.41Q345.2,90,341.54,85.48l-3,7.3a111.2,111.2,0,0,1,8.2,13Z"/>
      <path class="cls-1" d="M360.13,126.4a51,51,0,0,1,3.1,4.39q5.31-9.3,8.82-23.77l-3.66-5.21q-7.84,36.12-30.51,37.16l1.39,9c.58,2.55,1.16,2.31,1.74-.69,7.09-.68,13.18-4.25,18.28-10.66-.72-1.05-1.43-2-2.12-3Z"/>
      <path class="cls-1" d="M222.4,119.81c-.07,2.62-.19,5.19-.43,7.64h3.92v-2.79h18.3v-4.85Z"/>
      <path class="cls-1" d="M229.89,132.3h-4V132a80.62,80.62,0,0,1-1.12,13.88H229A101.55,101.55,0,0,0,229.89,132.3Z"/>
      <path class="cls-1" d="M247.51,99.32q-2.62-6.94-4.89-11.81L240.18,91a106.12,106.12,0,0,1,4.25,10.13h1.82Z"/>
      <path class="cls-1" d="M208.45,119.81v7.64h9.39q.43-3.63.54-7.64Z"/>
      <path class="cls-1" d="M218.56,162.88l3.49,5.21a58.43,58.43,0,0,0,5.5-14.6h-4.64A40.52,40.52,0,0,1,218.56,162.88Z"/>
      <path class="cls-1" d="M240.88,107.65l2.44-3.47A101.4,101.4,0,0,0,238.44,92L236,95.15Q238.45,100.72,240.88,107.65Z"/>
      <rect class="cls-1" x="214.73" y="98.62" width="21.44" height="6.31"/>
      <path class="cls-1" d="M281.5,97.23a86,86,0,0,1,5.23,11.12l2.27-3.82a106.34,106.34,0,0,0-5.58-11.46Z"/>
      <path class="cls-1" d="M264.77,101.06c1-2.09,1-3.24-.18-3.48h-3.66l0,3.53h3.81Z"/>
      <polygon class="cls-1" points="251.34 115.99 251.34 117.02 252.06 115.99 251.34 115.99"/>
      <path class="cls-1" d="M290.05,102.45l2.26-3.83a75.67,75.67,0,0,0-5.58-11.46l-1.91,4.17A64.14,64.14,0,0,1,290.05,102.45Z"/>
      <path class="cls-1" d="M263.89,161.14l2.79,6.26a31.37,31.37,0,0,0,5.7-6.08l-.1-9.82A24.75,24.75,0,0,1,263.89,161.14Z"/>
      <path class="cls-1" d="M251.34,117v4.89c.24.56.47,1.12.72,1.72h1.75v-1.09C252.92,120.37,252.09,118.51,251.34,117Z"/>
      <path class="cls-1" d="M280.28,98.28c1.05-2.09,1-3.24-.17-3.48h-3.84v6.31h4Z"/>
      <path class="cls-1" d="M276.27,116H273c0,2.67-.18,5.19-.42,7.63h3.87v.43a2,2,0,0,1,0,1.77v5.1a62.87,62.87,0,0,1-.4,6.91l.05,4.19h3.53a80.42,80.42,0,0,0,.83-11.8v-6.6h7v-2.79h3.14V116H280.28v-7.24h-4Z"/>
      <path class="cls-1" d="M264.94,123.63h3.59a62.23,62.23,0,0,0,.48-7.58V116h-4.07l-.08-7.24H261l.07,7.24h-3.54l.07,6.7.36.94h3.11l.17,17.71h.58a26.78,26.78,0,0,0,3.2-5.17Z"/>
      <path class="cls-1" d="M276.15,154.52a42.59,42.59,0,0,0,1.75-4.85h-1.8Z"/>
      <path class="cls-1" d="M315,166.7v.7h4v-5.08C317.7,163.83,316.36,165.28,315,166.7Z"/>
      <path class="cls-1" d="M319,120.16a122.46,122.46,0,0,0,8.54-17.71c1.75-.7,2.15-1.74,1.22-3.13l-3.31-5.56a108,108,0,0,1-13.89,27.91v10c1.19-1.59,2.34-3.22,3.43-4.89v30.33q2.07-2.16,4-4.52Z"/>
      <path class="cls-1" d="M297.72,136.83l2.22,5.2h1.79v.71q3-2.94,5.81-6.13V126.9A78.14,78.14,0,0,1,297.72,136.83Z"/>
      <path class="cls-1" d="M379.49,121.89l-3.66-5.2q-2.93,13.44-7.9,22c.48.87.94,1.68,1.45,2.62l-3.32,6.6c-.68-1.26-1.36-2.46-2-3.62q-7.56,9-18.71,9.54l1.39,9q.87,3.81,1.74-.7Q370.25,160.11,379.49,121.89Z"/>
      <path class="cls-1" d="M346.77,105.78l-.76,1.87a115.57,115.57,0,0,1,8.89,14.24l3.32-6.59a116,116,0,0,0-8.15-13.47l-2.6,5.19Z"/>
      <path class="cls-1" d="M247.33,124.66h-3.14v2.79H229.9V132c0,.11,0,.22,0,.33h17.44Z"/>
      <path class="cls-1" d="M251.34,121.91c-.59-1.41-1.18-2.73-1.74-3.85l-2.44,3.13q2.43,5.55,4.88,12.5l2.44-3.47c-.84-2.44-1.64-4.63-2.42-6.59h-.72Z"/>
      <path class="cls-1" d="M227.55,153.49h9.5V158q0,19.45-7.33,30.91l3.49,5.22q7.84-14.25,7.85-36.13v-4.51h14.29v-7.64H229Q228.43,149.82,227.55,153.49Z"/>
      <path class="cls-1" d="M219.61,145.85v7.64h3.3a55.81,55.81,0,0,0,1.86-7.64Z"/>
      <path class="cls-1" d="M257.68,126.47h-2.34c.29.77.58,1.52.88,2.36l2.44-3.48c-.22-.59-.44-1.14-.66-1.72h-.35Z"/>
      <polygon class="cls-1" points="253.71 113.64 252.06 115.99 253.74 115.99 253.71 113.64"/>
      <path class="cls-1" d="M253.74,116l.06,6.55c.14.35.29.73.44,1.09h3.41v-.94c-1-2.45-1.88-4.69-2.76-6.7Z"/>
      <path class="cls-1" d="M299.94,142h-8.5V124.68l-.87-2.05v1h-3.14V142h-7.8a54.87,54.87,0,0,1-1.73,7.64h9.71V157q0,21.89-12.56,30.22l2.79,6.25q13.77-11.12,13.78-37.16v-6.6h10.11v-6.93c-.36.34-.69.7-1.05,1Z"/>
      <path class="cls-1" d="M275.92,127.09a9.33,9.33,0,0,0,.53-1.26v-1.77a1.07,1.07,0,0,0-.67-.43h-3.2c-.13,1.35-.25,2.7-.45,4l.13,14.43h-4.6a33.07,33.07,0,0,1-5.16,7.44v.2h9.76l0,1.83a39.31,39.31,0,0,0,3.77-13.66Z"/>
      <path class="cls-1" d="M291.42,120.92c-.06,0-.09-.07-.15-.08h-.7v.85C290.86,121.44,291.13,121.17,291.42,120.92Z"/>
      <path class="cls-1" d="M300.16,130.56c-.89-2.1-1.78-4.06-2.67-5.9-.87.92-1.78,1.81-2.69,2.69,1,2.05,2,4.37,3.09,7Z"/>
      <path class="cls-1" d="M272.44,167.38h3.83l-.12-12.86a36.76,36.76,0,0,1-3.77,6.8Z"/>
      <path class="cls-1" d="M297.89,113.2l-1.23,2.68c.57-.61,1.16-1.2,1.72-1.83C298.22,113.77,298.06,113.47,297.89,113.2Z"/>
      <path class="cls-1" d="M303.47,124.66c-.64-1.61-1.3-3.12-2-4.58-.83,1-1.69,2-2.56,3,.76,1.66,1.51,3.45,2.27,5.45Z"/>
      <path class="cls-1" d="M272.09,123.62h0Z"/>
      <path class="cls-1" d="M290.28,122l.29.68v-.94Z"/>
      <path class="cls-1" d="M339.91,125.35l-3.31-5.55c-4.4,13-10.3,23.88-17.61,32.77v9.75a90.39,90.39,0,0,0,7.15-9.53v40.64h4V146.19a123,123,0,0,0,8.54-17.71C340.43,127.79,340.84,126.74,339.91,125.35Z"/>
      <path class="cls-1" d="M308.88,162.87l3,6.94c1.08-1,2.11-2.05,3.14-3.11v-9.61A78.94,78.94,0,0,1,308.88,162.87Z"/>
      <path class="cls-1" d="M363.23,130.79a46.7,46.7,0,0,1-3.94,5.86c1.53,2.25,3.11,4.82,4.74,7.66a40.08,40.08,0,0,0,3.9-5.6Q365.35,134.06,363.23,130.79Z"/>
      <path class="cls-1" d="M387,142.72q-7.85,36.14-30.51,37.16l1.4,9q.87,3.83,1.74-.69,21.79-2.08,31-40.29Z"/>
    </g>
    <g>
      <path class="cls-1" d="M82.17,132.33H80.89c-.82,0-1.22-.92-1.22-2.78v-11.4c-.12,2.08-.41,2.55-.87,1.39l-1.48-6.13H76.18v20a11.74,11.74,0,0,0,.81,5c1.79-1.55,3.55-3.12,5.18-4.79Z"/>
      <path class="cls-1" d="M89.6,126.13v-4.84l-.17-.08-.87,9c-.12,1.39-.7,2.09-1.74,2.09H85.65V140h3.08a2.68,2.68,0,0,0,2.33-1.57V126.13Z"/>
      <path class="cls-1" d="M79.67,99.68c.84-.79,1.67-1.62,2.5-2.47v-8c-.83,1.12-1.66,2.19-2.5,3.19V79.94H78.1V72.3h1.57V68.77c1-1.39,1-2.31-.18-2.78H76.18v39.78h3.49Z"/>
      <path class="cls-1" d="M85.48,84.59q1.74.69.17,2.77v6C87,91.72,88.32,90,89.6,88.23V81.62L89,79.94H88c-.88,1.63-1.78,3.17-2.69,4.65Z"/>
      <path class="cls-1" d="M70.66,105.77h.12v-37c1-1.39,1-2.31-.18-2.78H67.29V87.18H55.78v7.64H67.29V115a83.73,83.73,0,0,1-12.9,10.77l2.09,8.68c.46,1.16.75.7.87-1.39A117.74,117.74,0,0,0,67.29,123V141h3.49v-27.6h-.12Z"/>
      <path class="cls-1" d="M102.2,99.68H102v.39C102.06,99.94,102.13,99.81,102.2,99.68Z"/>
      <rect class="cls-1" x="135.52" y="99.68" width="2.03" height="7.64"/>
      <path class="cls-1" d="M104.52,82.3a118.76,118.76,0,0,0,12.11-.68V99.68H104.28l1.77,4.7c.46,1.63.12,2.21-1,1.74-.29.41-.6.8-.89,1.2h7.53l.1-1,2.27,1h2.61v11h4v-11h10.87v-7.1a119.72,119.72,0,0,1-12.73.69l-1-7.29c1,0,2,0,2.91,0V80.92a64.73,64.73,0,0,0,11-4.16c1.28.46,1.69,0,1.22-1.39l-2.44-6.6c-4.41,3.41-11,5.41-19.55,6A80,80,0,0,1,104.52,82.3Z"/>
      <rect class="cls-1" x="116.63" y="125.92" width="4.01" height="16.83"/>
      <path class="cls-1" d="M102.86,75,103,76.2c.32-.4.63-.78.94-1.19C103.58,75,103.24,75,102.86,75Z"/>
      <path class="cls-1" d="M170.34,88.22h.86v-5.5c-.42,1.25-.89,2.47-1.35,3.69l.36.26A1.68,1.68,0,0,1,170.34,88.22Z"/>
      <path class="cls-1" d="M147.72,94c.46,1.39.06,1.86-1.22,1.39-.47.25-1,.49-1.53.73-.63,1.72-1.29,3.42-2,5.07v2.42l1.91,4.1a95.53,95.53,0,0,0,4-10.07v20.68h3.49V92.44h-5.21Z"/>
      <path class="cls-1" d="M170.15,133V112.18h1v-5.37h-1v-1.23h-.06V88.48a1.08,1.08,0,0,1-.29.27,164.16,164.16,0,0,1-3.19,16.5v.33h-.08a1.06,1.06,0,0,1,0,.19l1,.35a1.79,1.79,0,0,1-.35,2.08v31.42h14.29V133Z"/>
      <path class="cls-1" d="M177.41,88.22l2.22-5.37c.47.55.9,1.15,1.33,1.74v-3h-6.27v6.6Z"/>
      <path class="cls-1" d="M155,70.16c.69-.46.81-1.16.34-2.09l-3.83-2.78a128.89,128.89,0,0,1-3.06,19.51h3.76C153.33,80,154.29,75.13,155,70.16Z"/>
      <rect class="cls-1" x="174.69" y="106.81" width="4.53" height="5.37"/>
      <rect class="cls-1" x="153.94" y="133.02" width="9.82" height="6.6"/>
      <path class="cls-1" d="M157.08,105.58v6.6h3.71c.71-2.13,1.33-4.35,1.92-6.6Z"/>
      <rect class="cls-1" x="148.88" y="125.92" width="3.49" height="17.53"/>
      <path class="cls-1" d="M167.13,81.62h-11.8V84.8h4.54v3.42h5.18l-.3-.64C165.62,85.67,166.37,83.64,167.13,81.62Z"/>
      <path class="cls-1" d="M164.75,64.25l-2.44,5.91a40,40,0,0,1,5.38,10c.85-2.4,1.58-4.9,2.27-7.44A32.4,32.4,0,0,0,164.75,64.25Z"/>
      <path class="cls-1" d="M88,79.94c.2-.37.41-.72.61-1.1l.41,1.1h.63v1.68l1.46,3.86v-.89h2V53.89c1-1.39,1-2.31-.17-2.78H89.6V72.3H79.67v7.64Z"/>
      <path class="cls-1" d="M82.17,113.41h-2.5v4.74c.86-.78,1.66-1.59,2.5-2.39Z"/>
      <path class="cls-1" d="M99.72,99.68H102V84.8c.86-.8,1.71-1.64,2.54-2.5h-.62L103,76.2c-.34.43-.68.89-1,1.31V53.89c1-1.39,1-2.31-.17-2.78H98.5v54.61c.41-.61.81-1.23,1.22-1.86Z"/>
      <path class="cls-1" d="M114.73,118.28l1-10.21-1.74-.75h-2.37l-.77,8.05c-.12,1.39-.7,2.08-1.75,2.08H103.2c-.81,0-1.22-.92-1.22-2.78v-4.53c-1.13,1.44-2.3,2.79-3.48,4.09v4.26q0,6.6,3.13,6.6h9.42c1.86,0,3-2,3.54-5.91v-.9Z"/>
      <path class="cls-1" d="M91.06,87.55a1,1,0,0,1-.93,0c-.17.25-.35.47-.53.71v11.85c-1.24,1.28-2.61,2.46-3.95,3.66v8.59c1.36-1.4,2.7-2.81,3.95-4.26v13.22l1.46.63Z"/>
      <path class="cls-1" d="M112.44,72.64c1.16.47,1.51-.11,1-1.73L110.88,64A78.76,78.76,0,0,1,104,75c2.43,0,4.73,0,6.89-.2C111.38,74.09,111.92,73.39,112.44,72.64Z"/>
      <rect class="cls-1" x="138.95" y="125.92" width="4.01" height="1.95"/>
      <path class="cls-1" d="M139,98.43v19.85h4V103.57l-.53-1.11c.2-.42.34-.89.53-1.31V97C141.73,97.44,140.42,97.94,139,98.43Z"/>
      <path class="cls-1" d="M155.33,84.8H152.2c-.18.79-.33,1.59-.53,2.38l1.05.34a1.8,1.8,0,0,1-.35,2.09v2.83h7.5V88.22h-4.54Z"/>
      <path class="cls-1" d="M146.65,91.06c.63-2.06,1.27-4.1,1.79-6.26H143V66.05a65.31,65.31,0,0,0,11-4.17c1.28.47,1.68,0,1.22-1.39l-2.44-6.6q-8.55,6.6-27.55,6.25l1,7.3a117.31,117.31,0,0,0,12.73-.7V84.8H122v7.64H133c5.1-1,9.23-2.7,12.3-5.08Z"/>
      <rect class="cls-1" x="171.2" y="88.22" width="3.49" height="12"/>
      <path class="cls-1" d="M167.69,80.2c-.17.48-.38.94-.56,1.42h1.11C168.07,81.13,167.87,80.67,167.69,80.2Z"/>
      <path class="cls-1" d="M182,97.31a40.71,40.71,0,0,0-2.61-5.2v5.2Z"/>
      <path class="cls-1" d="M168.58,81.62h6.11V74.73a1.82,1.82,0,0,0,.35-2.09l-1-.34a163.53,163.53,0,0,0,3.31-17c.7-.46.81-1.16.35-2.08l-3.84-2.78A124.93,124.93,0,0,1,170,72.76c.45,1.06.87,2.16,1.24,3.3Z"/>
      <polygon class="cls-1" points="188.98 118.15 185.03 118.15 185.03 124.18 194.1 124.18 194.1 124.74 204.85 124.74 204.85 118.15 192.47 118.15 192.47 106.81 188.98 106.81 188.98 118.15"/>
      <polygon class="cls-1" points="171.2 112.18 171.2 128.56 171.96 128.56 171.96 124.18 174.69 124.18 174.69 112.18 171.2 112.18"/>
      <path class="cls-1" d="M184.83,97.31H189v2.91h3.49V97.31h9.07v-6.6h-9.07V73.34h10.81v-6.6H190.9l2.62-5.56a34.28,34.28,0,0,0-6.45-11.81l-2.45,5.91a40.92,40.92,0,0,1,5.93,11.46h-12.9v6.6H189V90.71h-4.45a40.06,40.06,0,0,1,1.55,4Z"/>
      <rect class="cls-1" x="176.26" y="118.15" width="5.29" height="6.03"/>
      <path class="cls-1" d="M165.05,88.22l.65,1.38c.05-.46.11-.92.16-1.38Z"/>
      <path class="cls-1" d="M82.17,84.59V89.2c1-1.43,2.08-3,3.09-4.61Z"/>
      <path class="cls-1" d="M102.2,99.68h2.08l-.84-2.24C103,98.21,102.61,98.94,102.2,99.68Z"/>
      <path class="cls-1" d="M102,107.32v2.82c.73-.91,1.44-1.85,2.14-2.82Z"/>
      <path class="cls-1" d="M85.65,93.33c-1.14,1.35-2.3,2.65-3.48,3.88v8.56h-2.5v2.85c2.09-1.55,4.09-3.18,6-4.88Z"/>
      <path class="cls-1" d="M94.54,111V87.36q1.58-2.08-.17-2.77H93.09V122.8l.35.15-1,10.42a13,13,0,0,1-1.33,5V152c0,4.39,1,6.6,3.14,6.6h9.41c2,0,3.2-2.21,3.66-6.6l1-10.42-4-1.74-.87,9c-.12,1.39-.7,2.08-1.75,2.08H95.77c-.82,0-1.23-.92-1.23-2.77V118.28c1.36-1.27,2.67-2.63,4-4v-8.51A61.15,61.15,0,0,1,94.54,111Z"/>
      <path class="cls-1" d="M77,138.35a85.74,85.74,0,0,1-7.73,6l2.1,8.68c.46,1.16.75.69.87-1.39a117.74,117.74,0,0,0,9.94-10.07v18.06h3.48V140H79.32A2.51,2.51,0,0,1,77,138.35Z"/>
      <path class="cls-1" d="M82.17,115.76v16.57h3.48v-20C84.53,113.49,83.35,114.63,82.17,115.76Z"/>
      <rect class="cls-1" x="70.78" y="105.77" width="5.4" height="7.64"/>
      <polygon class="cls-1" points="91.06 126.13 93.09 126.13 93.09 122.8 91.06 121.92 91.06 126.13"/>
      <path class="cls-1" d="M79.67,108.62c-1,.74-1.93,1.53-3,2.23l.62,2.56h2.35Z"/>
      <path class="cls-1" d="M91.17,85.79l-.11-.31v2.07C91.4,87.35,91.46,86.8,91.17,85.79Z"/>
      <path class="cls-1" d="M99.72,103.86v3.46H102v-7.25C101.24,101.38,100.48,102.65,99.72,103.86Z"/>
      <path class="cls-1" d="M114.73,118.28l0,.21c0,.26-.08.44-.12.69v6.74h2v-7.64Z"/>
      <rect class="cls-1" x="152.37" y="118.28" width="0.06" height="7.64"/>
      <path class="cls-1" d="M135.52,99.68v-.16c1.21-.36,2.35-.72,3.43-1.09v-6h-6a66.3,66.3,0,0,1-12.34,1.16v6.08Z"/>
      <path class="cls-1" d="M143,92.44V97c.71-.29,1.39-.58,2-.87.44-1.2.87-2.4,1.27-3.64Z"/>
      <polygon class="cls-1" points="135.52 118.28 135.52 107.32 131.51 107.32 131.51 118.28 120.64 118.28 120.64 125.92 131.51 125.92 131.51 161.35 135.52 161.35 135.52 125.92 138.94 125.92 138.94 118.28 135.52 118.28"/>
      <rect class="cls-1" x="142.96" y="118.28" width="5.93" height="7.64"/>
      <path class="cls-1" d="M147.16,92.44l-.51-1.38c-.14.45-.26.93-.41,1.38Z"/>
      <rect class="cls-1" x="170.21" y="100.22" width="0.99" height="5.37"/>
      <rect class="cls-1" x="163.76" y="139.62" width="3.49" height="22.42"/>
      <path class="cls-1" d="M177.41,88.22l-.22.53a37.38,37.38,0,0,1,2.2,3.36v-1.4h5.14A32.74,32.74,0,0,0,181,84.59v3.63Z"/>
      <path class="cls-1" d="M170.34,88.22h-.19v.26A1.15,1.15,0,0,0,170.34,88.22Z"/>
      <polygon class="cls-1" points="194.1 130.78 194.1 124.74 176.26 124.74 176.26 124.18 174.69 124.18 174.69 128.56 171.96 128.56 171.96 130.78 181.54 130.78 181.54 133.02 182.53 133.02 182.53 139.62 181.54 139.62 181.54 151.62 168.82 151.62 168.82 158.22 197.41 158.22 197.41 151.62 185.03 151.62 185.03 130.78 194.1 130.78"/>
      <rect class="cls-1" x="192.47" y="100.22" width="3.37" height="6.6"/>
      <path class="cls-1" d="M174.69,100.22v5.36h4.53v1.23h2.32v11.34H185V106.81H189v-6.59h-5.52l1.37-2.91H182c.39.94.77,1.9,1.11,2.91Z"/>
      <path class="cls-1" d="M166.67,112.18h-5.88a91,91,0,0,1-3.48,8.88l2.44,5.21a94.85,94.85,0,0,0,4-10.08V133h2.91Z"/>
      <path class="cls-1" d="M166.67,105.25V91.67l-1-2.07a120.83,120.83,0,0,1-3,16h3.88C166.62,105.47,166.64,105.36,166.67,105.25Z"/>
      <rect class="cls-1" x="171.2" y="105.58" width="3.49" height="1.23"/>
      <path class="cls-1" d="M169.85,86.41l-3.47-2.52c-.13,1.49-.35,2.88-.52,4.33h.81v3.45l.52,1.12C168.16,90.72,169,88.58,169.85,86.41Z"/>
    </g>
  </g>
</svg>
